<mxfile host="app.diagrams.net" modified="2023-09-21T19:21:52.047Z" agent="Mozilla/5.0 (X11; Linux x86_64; rv:109.0) Gecko/20100101 Firefox/114.0" etag="qVvvNFFxQtMWPlthMImY" version="21.8.0" type="github">
  <diagram name="PÃ¡gina-1" id="sJGy7B05Y7Z3vu1BLj3t">
    <mxGraphModel dx="697" dy="761" grid="1" gridSize="10" guides="1" tooltips="1" connect="1" arrows="1" fold="1" page="1" pageScale="1" pageWidth="827" pageHeight="1169" math="0" shadow="0">
      <root>
        <mxCell id="0" />
        <mxCell id="1" parent="0" />
        <mxCell id="LJq8jPC8GaU89uwI5xMu-1" value="Proveedor" style="rounded=1;whiteSpace=wrap;html=1;fillColor=#dae8fc;strokeColor=#6c8ebf;" vertex="1" parent="1">
          <mxGeometry x="40" y="30" width="120" height="60" as="geometry" />
        </mxCell>
        <mxCell id="LJq8jPC8GaU89uwI5xMu-3" value="Cliente" style="rounded=1;whiteSpace=wrap;html=1;fillColor=#dae8fc;strokeColor=#6c8ebf;" vertex="1" parent="1">
          <mxGeometry x="210" y="30" width="120" height="60" as="geometry" />
        </mxCell>
        <mxCell id="LJq8jPC8GaU89uwI5xMu-4" value="Categoria" style="rounded=1;whiteSpace=wrap;html=1;fillColor=#dae8fc;strokeColor=#6c8ebf;" vertex="1" parent="1">
          <mxGeometry x="50" y="100" width="120" height="60" as="geometry" />
        </mxCell>
        <mxCell id="LJq8jPC8GaU89uwI5xMu-5" value="Producto" style="rounded=1;whiteSpace=wrap;html=1;fillColor=#dae8fc;strokeColor=#6c8ebf;" vertex="1" parent="1">
          <mxGeometry x="390" y="60" width="120" height="60" as="geometry" />
        </mxCell>
        <mxCell id="LJq8jPC8GaU89uwI5xMu-8" style="edgeStyle=orthogonalEdgeStyle;rounded=0;orthogonalLoop=1;jettySize=auto;html=1;exitX=1;exitY=0.5;exitDx=0;exitDy=0;entryX=0;entryY=0.5;entryDx=0;entryDy=0;endArrow=none;endFill=0;" edge="1" parent="1" source="LJq8jPC8GaU89uwI5xMu-6" target="LJq8jPC8GaU89uwI5xMu-7">
          <mxGeometry relative="1" as="geometry" />
        </mxCell>
        <mxCell id="LJq8jPC8GaU89uwI5xMu-6" value="Proveedor" style="rounded=1;whiteSpace=wrap;html=1;fillColor=#dae8fc;strokeColor=#6c8ebf;" vertex="1" parent="1">
          <mxGeometry x="70" y="210" width="120" height="60" as="geometry" />
        </mxCell>
        <mxCell id="LJq8jPC8GaU89uwI5xMu-11" style="edgeStyle=orthogonalEdgeStyle;rounded=0;orthogonalLoop=1;jettySize=auto;html=1;exitX=1;exitY=0.5;exitDx=0;exitDy=0;entryX=0;entryY=0.5;entryDx=0;entryDy=0;endArrow=none;endFill=0;" edge="1" parent="1" source="LJq8jPC8GaU89uwI5xMu-7" target="LJq8jPC8GaU89uwI5xMu-10">
          <mxGeometry relative="1" as="geometry" />
        </mxCell>
        <mxCell id="LJq8jPC8GaU89uwI5xMu-7" value="distribuye" style="rhombus;whiteSpace=wrap;html=1;fillColor=#d5e8d4;strokeColor=#82b366;" vertex="1" parent="1">
          <mxGeometry x="300" y="200" width="80" height="80" as="geometry" />
        </mxCell>
        <mxCell id="LJq8jPC8GaU89uwI5xMu-9" value="Venta" style="rounded=1;whiteSpace=wrap;html=1;fillColor=#dae8fc;strokeColor=#6c8ebf;" vertex="1" parent="1">
          <mxGeometry x="220" y="100" width="120" height="60" as="geometry" />
        </mxCell>
        <mxCell id="LJq8jPC8GaU89uwI5xMu-10" value="Producto" style="rounded=1;whiteSpace=wrap;html=1;fillColor=#dae8fc;strokeColor=#6c8ebf;" vertex="1" parent="1">
          <mxGeometry x="470" y="210" width="120" height="60" as="geometry" />
        </mxCell>
        <mxCell id="LJq8jPC8GaU89uwI5xMu-12" style="edgeStyle=orthogonalEdgeStyle;rounded=0;orthogonalLoop=1;jettySize=auto;html=1;exitX=1;exitY=0.5;exitDx=0;exitDy=0;entryX=0;entryY=0.5;entryDx=0;entryDy=0;endArrow=none;endFill=0;" edge="1" source="LJq8jPC8GaU89uwI5xMu-13" target="LJq8jPC8GaU89uwI5xMu-15" parent="1">
          <mxGeometry relative="1" as="geometry" />
        </mxCell>
        <mxCell id="LJq8jPC8GaU89uwI5xMu-13" value="Producto" style="rounded=1;whiteSpace=wrap;html=1;fillColor=#dae8fc;strokeColor=#6c8ebf;" vertex="1" parent="1">
          <mxGeometry x="70" y="330" width="120" height="60" as="geometry" />
        </mxCell>
        <mxCell id="LJq8jPC8GaU89uwI5xMu-14" style="edgeStyle=orthogonalEdgeStyle;rounded=0;orthogonalLoop=1;jettySize=auto;html=1;exitX=1;exitY=0.5;exitDx=0;exitDy=0;entryX=0;entryY=0.5;entryDx=0;entryDy=0;endArrow=none;endFill=0;" edge="1" source="LJq8jPC8GaU89uwI5xMu-15" target="LJq8jPC8GaU89uwI5xMu-16" parent="1">
          <mxGeometry relative="1" as="geometry" />
        </mxCell>
        <mxCell id="LJq8jPC8GaU89uwI5xMu-15" value="se clasifica" style="rhombus;whiteSpace=wrap;html=1;fillColor=#d5e8d4;strokeColor=#82b366;" vertex="1" parent="1">
          <mxGeometry x="300" y="320" width="80" height="80" as="geometry" />
        </mxCell>
        <mxCell id="LJq8jPC8GaU89uwI5xMu-16" value="Categoria" style="rounded=1;whiteSpace=wrap;html=1;fillColor=#dae8fc;strokeColor=#6c8ebf;" vertex="1" parent="1">
          <mxGeometry x="470" y="330" width="120" height="60" as="geometry" />
        </mxCell>
        <mxCell id="LJq8jPC8GaU89uwI5xMu-17" style="edgeStyle=orthogonalEdgeStyle;rounded=0;orthogonalLoop=1;jettySize=auto;html=1;exitX=1;exitY=0.5;exitDx=0;exitDy=0;entryX=0;entryY=0.5;entryDx=0;entryDy=0;endArrow=none;endFill=0;" edge="1" source="LJq8jPC8GaU89uwI5xMu-18" target="LJq8jPC8GaU89uwI5xMu-20" parent="1">
          <mxGeometry relative="1" as="geometry" />
        </mxCell>
        <mxCell id="LJq8jPC8GaU89uwI5xMu-18" value="Cliente" style="rounded=1;whiteSpace=wrap;html=1;fillColor=#dae8fc;strokeColor=#6c8ebf;" vertex="1" parent="1">
          <mxGeometry x="70" y="440" width="120" height="60" as="geometry" />
        </mxCell>
        <mxCell id="LJq8jPC8GaU89uwI5xMu-19" style="edgeStyle=orthogonalEdgeStyle;rounded=0;orthogonalLoop=1;jettySize=auto;html=1;exitX=1;exitY=0.5;exitDx=0;exitDy=0;entryX=0;entryY=0.5;entryDx=0;entryDy=0;endArrow=none;endFill=0;" edge="1" source="LJq8jPC8GaU89uwI5xMu-20" target="LJq8jPC8GaU89uwI5xMu-21" parent="1">
          <mxGeometry relative="1" as="geometry" />
        </mxCell>
        <mxCell id="LJq8jPC8GaU89uwI5xMu-20" value="generada" style="rhombus;whiteSpace=wrap;html=1;fillColor=#d5e8d4;strokeColor=#82b366;" vertex="1" parent="1">
          <mxGeometry x="300" y="430" width="80" height="80" as="geometry" />
        </mxCell>
        <mxCell id="LJq8jPC8GaU89uwI5xMu-21" value="Venta" style="rounded=1;whiteSpace=wrap;html=1;fillColor=#dae8fc;strokeColor=#6c8ebf;" vertex="1" parent="1">
          <mxGeometry x="470" y="440" width="120" height="60" as="geometry" />
        </mxCell>
        <mxCell id="LJq8jPC8GaU89uwI5xMu-22" style="edgeStyle=orthogonalEdgeStyle;rounded=0;orthogonalLoop=1;jettySize=auto;html=1;exitX=1;exitY=0.5;exitDx=0;exitDy=0;entryX=0;entryY=0.5;entryDx=0;entryDy=0;endArrow=none;endFill=0;" edge="1" source="LJq8jPC8GaU89uwI5xMu-23" target="LJq8jPC8GaU89uwI5xMu-25" parent="1">
          <mxGeometry relative="1" as="geometry" />
        </mxCell>
        <mxCell id="LJq8jPC8GaU89uwI5xMu-23" value="Producto" style="rounded=1;whiteSpace=wrap;html=1;fillColor=#dae8fc;strokeColor=#6c8ebf;" vertex="1" parent="1">
          <mxGeometry x="70" y="555" width="120" height="60" as="geometry" />
        </mxCell>
        <mxCell id="LJq8jPC8GaU89uwI5xMu-24" style="edgeStyle=orthogonalEdgeStyle;rounded=0;orthogonalLoop=1;jettySize=auto;html=1;exitX=1;exitY=0.5;exitDx=0;exitDy=0;entryX=0;entryY=0.5;entryDx=0;entryDy=0;endArrow=none;endFill=0;" edge="1" source="LJq8jPC8GaU89uwI5xMu-25" target="LJq8jPC8GaU89uwI5xMu-26" parent="1">
          <mxGeometry relative="1" as="geometry" />
        </mxCell>
        <mxCell id="LJq8jPC8GaU89uwI5xMu-25" value="cantidad" style="rhombus;whiteSpace=wrap;html=1;fillColor=#d5e8d4;strokeColor=#82b366;" vertex="1" parent="1">
          <mxGeometry x="300" y="545" width="80" height="80" as="geometry" />
        </mxCell>
        <mxCell id="LJq8jPC8GaU89uwI5xMu-26" value="Venta" style="rounded=1;whiteSpace=wrap;html=1;fillColor=#dae8fc;strokeColor=#6c8ebf;" vertex="1" parent="1">
          <mxGeometry x="470" y="555" width="120" height="60" as="geometry" />
        </mxCell>
        <mxCell id="LJq8jPC8GaU89uwI5xMu-27" style="edgeStyle=orthogonalEdgeStyle;rounded=0;orthogonalLoop=1;jettySize=auto;html=1;exitX=1;exitY=0.5;exitDx=0;exitDy=0;entryX=0;entryY=0.5;entryDx=0;entryDy=0;endArrow=none;endFill=0;" edge="1" source="LJq8jPC8GaU89uwI5xMu-28" target="LJq8jPC8GaU89uwI5xMu-30" parent="1">
          <mxGeometry relative="1" as="geometry" />
        </mxCell>
        <mxCell id="LJq8jPC8GaU89uwI5xMu-71" style="edgeStyle=orthogonalEdgeStyle;rounded=0;orthogonalLoop=1;jettySize=auto;html=1;exitX=0;exitY=1;exitDx=0;exitDy=0;entryX=0.5;entryY=0;entryDx=0;entryDy=0;" edge="1" parent="1" source="LJq8jPC8GaU89uwI5xMu-28" target="LJq8jPC8GaU89uwI5xMu-70">
          <mxGeometry relative="1" as="geometry" />
        </mxCell>
        <mxCell id="LJq8jPC8GaU89uwI5xMu-72" style="edgeStyle=orthogonalEdgeStyle;rounded=0;orthogonalLoop=1;jettySize=auto;html=1;exitX=0.75;exitY=1;exitDx=0;exitDy=0;" edge="1" parent="1" source="LJq8jPC8GaU89uwI5xMu-28">
          <mxGeometry relative="1" as="geometry">
            <mxPoint x="160" y="1540" as="targetPoint" />
          </mxGeometry>
        </mxCell>
        <mxCell id="LJq8jPC8GaU89uwI5xMu-104" style="edgeStyle=orthogonalEdgeStyle;rounded=0;orthogonalLoop=1;jettySize=auto;html=1;exitX=0.75;exitY=0;exitDx=0;exitDy=0;entryX=0.5;entryY=1;entryDx=0;entryDy=0;" edge="1" parent="1" source="LJq8jPC8GaU89uwI5xMu-28" target="LJq8jPC8GaU89uwI5xMu-103">
          <mxGeometry relative="1" as="geometry" />
        </mxCell>
        <mxCell id="LJq8jPC8GaU89uwI5xMu-28" value="Proveedor" style="rounded=1;whiteSpace=wrap;html=1;fillColor=#dae8fc;strokeColor=#6c8ebf;" vertex="1" parent="1">
          <mxGeometry x="70" y="1430" width="120" height="60" as="geometry" />
        </mxCell>
        <mxCell id="LJq8jPC8GaU89uwI5xMu-29" style="edgeStyle=orthogonalEdgeStyle;rounded=0;orthogonalLoop=1;jettySize=auto;html=1;exitX=1;exitY=0.5;exitDx=0;exitDy=0;entryX=0;entryY=0.5;entryDx=0;entryDy=0;endArrow=none;endFill=0;" edge="1" source="LJq8jPC8GaU89uwI5xMu-30" target="LJq8jPC8GaU89uwI5xMu-31" parent="1">
          <mxGeometry relative="1" as="geometry" />
        </mxCell>
        <mxCell id="LJq8jPC8GaU89uwI5xMu-30" value="distribuye" style="rhombus;whiteSpace=wrap;html=1;fillColor=#d5e8d4;strokeColor=#82b366;" vertex="1" parent="1">
          <mxGeometry x="300" y="1420" width="80" height="80" as="geometry" />
        </mxCell>
        <mxCell id="LJq8jPC8GaU89uwI5xMu-35" style="edgeStyle=orthogonalEdgeStyle;rounded=0;orthogonalLoop=1;jettySize=auto;html=1;exitX=0.75;exitY=0;exitDx=0;exitDy=0;entryX=0.5;entryY=1;entryDx=0;entryDy=0;endArrow=none;endFill=0;" edge="1" parent="1" source="LJq8jPC8GaU89uwI5xMu-31" target="LJq8jPC8GaU89uwI5xMu-33">
          <mxGeometry relative="1" as="geometry" />
        </mxCell>
        <mxCell id="LJq8jPC8GaU89uwI5xMu-39" style="edgeStyle=orthogonalEdgeStyle;rounded=0;orthogonalLoop=1;jettySize=auto;html=1;exitX=0.75;exitY=1;exitDx=0;exitDy=0;entryX=0.5;entryY=0;entryDx=0;entryDy=0;endArrow=none;endFill=0;" edge="1" parent="1" source="LJq8jPC8GaU89uwI5xMu-31" target="LJq8jPC8GaU89uwI5xMu-37">
          <mxGeometry relative="1" as="geometry" />
        </mxCell>
        <mxCell id="LJq8jPC8GaU89uwI5xMu-79" style="edgeStyle=orthogonalEdgeStyle;rounded=0;orthogonalLoop=1;jettySize=auto;html=1;exitX=0;exitY=1;exitDx=0;exitDy=0;endArrow=none;endFill=0;" edge="1" parent="1" source="LJq8jPC8GaU89uwI5xMu-31" target="LJq8jPC8GaU89uwI5xMu-78">
          <mxGeometry relative="1" as="geometry" />
        </mxCell>
        <mxCell id="LJq8jPC8GaU89uwI5xMu-84" style="edgeStyle=orthogonalEdgeStyle;rounded=0;orthogonalLoop=1;jettySize=auto;html=1;exitX=0.25;exitY=1;exitDx=0;exitDy=0;" edge="1" parent="1" source="LJq8jPC8GaU89uwI5xMu-31">
          <mxGeometry relative="1" as="geometry">
            <mxPoint x="500" y="1590" as="targetPoint" />
          </mxGeometry>
        </mxCell>
        <mxCell id="LJq8jPC8GaU89uwI5xMu-31" value="producto" style="rounded=1;whiteSpace=wrap;html=1;fillColor=#dae8fc;strokeColor=#6c8ebf;" vertex="1" parent="1">
          <mxGeometry x="470" y="1430" width="120" height="60" as="geometry" />
        </mxCell>
        <mxCell id="LJq8jPC8GaU89uwI5xMu-32" style="edgeStyle=orthogonalEdgeStyle;rounded=0;orthogonalLoop=1;jettySize=auto;html=1;exitX=1;exitY=0.5;exitDx=0;exitDy=0;entryX=0;entryY=0.5;entryDx=0;entryDy=0;endArrow=none;endFill=0;" edge="1" source="LJq8jPC8GaU89uwI5xMu-33" target="LJq8jPC8GaU89uwI5xMu-34" parent="1">
          <mxGeometry relative="1" as="geometry" />
        </mxCell>
        <mxCell id="LJq8jPC8GaU89uwI5xMu-33" value="se clasifica" style="rhombus;whiteSpace=wrap;html=1;fillColor=#d5e8d4;strokeColor=#82b366;" vertex="1" parent="1">
          <mxGeometry x="520" y="1230" width="80" height="80" as="geometry" />
        </mxCell>
        <mxCell id="LJq8jPC8GaU89uwI5xMu-75" style="edgeStyle=orthogonalEdgeStyle;rounded=0;orthogonalLoop=1;jettySize=auto;html=1;exitX=0;exitY=1;exitDx=0;exitDy=0;entryX=0.5;entryY=0;entryDx=0;entryDy=0;" edge="1" parent="1" source="LJq8jPC8GaU89uwI5xMu-34" target="LJq8jPC8GaU89uwI5xMu-74">
          <mxGeometry relative="1" as="geometry" />
        </mxCell>
        <mxCell id="LJq8jPC8GaU89uwI5xMu-77" style="edgeStyle=orthogonalEdgeStyle;rounded=0;orthogonalLoop=1;jettySize=auto;html=1;exitX=0.5;exitY=1;exitDx=0;exitDy=0;" edge="1" parent="1" source="LJq8jPC8GaU89uwI5xMu-34" target="LJq8jPC8GaU89uwI5xMu-76">
          <mxGeometry relative="1" as="geometry" />
        </mxCell>
        <mxCell id="LJq8jPC8GaU89uwI5xMu-34" value="Categoria" style="rounded=1;whiteSpace=wrap;html=1;fillColor=#dae8fc;strokeColor=#6c8ebf;" vertex="1" parent="1">
          <mxGeometry x="690" y="1240" width="120" height="60" as="geometry" />
        </mxCell>
        <mxCell id="LJq8jPC8GaU89uwI5xMu-40" style="edgeStyle=orthogonalEdgeStyle;rounded=0;orthogonalLoop=1;jettySize=auto;html=1;exitX=0.5;exitY=1;exitDx=0;exitDy=0;entryX=1;entryY=0.75;entryDx=0;entryDy=0;endArrow=none;endFill=0;" edge="1" parent="1" source="LJq8jPC8GaU89uwI5xMu-37" target="LJq8jPC8GaU89uwI5xMu-38">
          <mxGeometry relative="1" as="geometry" />
        </mxCell>
        <mxCell id="LJq8jPC8GaU89uwI5xMu-37" value="cantidad" style="rhombus;whiteSpace=wrap;html=1;fillColor=#d5e8d4;strokeColor=#82b366;" vertex="1" parent="1">
          <mxGeometry x="660" y="1560" width="80" height="80" as="geometry" />
        </mxCell>
        <mxCell id="LJq8jPC8GaU89uwI5xMu-110" style="edgeStyle=orthogonalEdgeStyle;rounded=0;orthogonalLoop=1;jettySize=auto;html=1;exitX=0;exitY=0.75;exitDx=0;exitDy=0;entryX=0.5;entryY=0;entryDx=0;entryDy=0;" edge="1" parent="1" source="LJq8jPC8GaU89uwI5xMu-38" target="LJq8jPC8GaU89uwI5xMu-109">
          <mxGeometry relative="1" as="geometry" />
        </mxCell>
        <mxCell id="LJq8jPC8GaU89uwI5xMu-113" style="edgeStyle=orthogonalEdgeStyle;rounded=0;orthogonalLoop=1;jettySize=auto;html=1;exitX=0.75;exitY=1;exitDx=0;exitDy=0;" edge="1" parent="1" source="LJq8jPC8GaU89uwI5xMu-38" target="LJq8jPC8GaU89uwI5xMu-112">
          <mxGeometry relative="1" as="geometry" />
        </mxCell>
        <mxCell id="LJq8jPC8GaU89uwI5xMu-114" style="edgeStyle=orthogonalEdgeStyle;rounded=0;orthogonalLoop=1;jettySize=auto;html=1;exitX=0;exitY=1;exitDx=0;exitDy=0;" edge="1" parent="1" source="LJq8jPC8GaU89uwI5xMu-38" target="LJq8jPC8GaU89uwI5xMu-111">
          <mxGeometry relative="1" as="geometry" />
        </mxCell>
        <mxCell id="LJq8jPC8GaU89uwI5xMu-38" value="venta" style="rounded=1;whiteSpace=wrap;html=1;fillColor=#dae8fc;strokeColor=#6c8ebf;" vertex="1" parent="1">
          <mxGeometry x="550" y="1680" width="120" height="60" as="geometry" />
        </mxCell>
        <mxCell id="LJq8jPC8GaU89uwI5xMu-45" style="edgeStyle=orthogonalEdgeStyle;rounded=0;orthogonalLoop=1;jettySize=auto;html=1;exitX=1;exitY=0.5;exitDx=0;exitDy=0;entryX=0;entryY=0.5;entryDx=0;entryDy=0;endArrow=none;endFill=0;" edge="1" parent="1" source="LJq8jPC8GaU89uwI5xMu-42" target="LJq8jPC8GaU89uwI5xMu-43">
          <mxGeometry relative="1" as="geometry" />
        </mxCell>
        <mxCell id="LJq8jPC8GaU89uwI5xMu-95" style="edgeStyle=orthogonalEdgeStyle;rounded=0;orthogonalLoop=1;jettySize=auto;html=1;exitX=0.5;exitY=1;exitDx=0;exitDy=0;entryX=0;entryY=0;entryDx=0;entryDy=0;" edge="1" parent="1" source="LJq8jPC8GaU89uwI5xMu-42" target="LJq8jPC8GaU89uwI5xMu-90">
          <mxGeometry relative="1" as="geometry" />
        </mxCell>
        <mxCell id="LJq8jPC8GaU89uwI5xMu-42" value="Cliente" style="rounded=1;whiteSpace=wrap;html=1;fillColor=#dae8fc;strokeColor=#6c8ebf;" vertex="1" parent="1">
          <mxGeometry x="70" y="1680" width="120" height="60" as="geometry" />
        </mxCell>
        <mxCell id="LJq8jPC8GaU89uwI5xMu-44" style="edgeStyle=orthogonalEdgeStyle;rounded=0;orthogonalLoop=1;jettySize=auto;html=1;exitX=1;exitY=0.5;exitDx=0;exitDy=0;entryX=0;entryY=0.5;entryDx=0;entryDy=0;endArrow=none;endFill=0;" edge="1" parent="1" source="LJq8jPC8GaU89uwI5xMu-43" target="LJq8jPC8GaU89uwI5xMu-38">
          <mxGeometry relative="1" as="geometry" />
        </mxCell>
        <mxCell id="LJq8jPC8GaU89uwI5xMu-43" value="generada" style="rhombus;whiteSpace=wrap;html=1;fillColor=#d5e8d4;strokeColor=#82b366;" vertex="1" parent="1">
          <mxGeometry x="350" y="1670" width="80" height="80" as="geometry" />
        </mxCell>
        <mxCell id="LJq8jPC8GaU89uwI5xMu-47" value="(1:1)" style="text;html=1;strokeColor=none;fillColor=none;align=center;verticalAlign=middle;whiteSpace=wrap;rounded=0;" vertex="1" parent="1">
          <mxGeometry x="220" y="1430" width="60" height="30" as="geometry" />
        </mxCell>
        <mxCell id="LJq8jPC8GaU89uwI5xMu-48" value="(1:N)" style="text;html=1;strokeColor=none;fillColor=none;align=center;verticalAlign=middle;whiteSpace=wrap;rounded=0;" vertex="1" parent="1">
          <mxGeometry x="400" y="1420" width="60" height="30" as="geometry" />
        </mxCell>
        <mxCell id="LJq8jPC8GaU89uwI5xMu-49" value="&lt;b&gt;1:N&lt;/b&gt;" style="text;html=1;strokeColor=none;fillColor=none;align=center;verticalAlign=middle;whiteSpace=wrap;rounded=0;" vertex="1" parent="1">
          <mxGeometry x="310" y="1390" width="60" height="30" as="geometry" />
        </mxCell>
        <mxCell id="LJq8jPC8GaU89uwI5xMu-50" value="(1:N)" style="text;html=1;strokeColor=none;fillColor=none;align=center;verticalAlign=middle;whiteSpace=wrap;rounded=0;" vertex="1" parent="1">
          <mxGeometry x="570" y="1400" width="60" height="30" as="geometry" />
        </mxCell>
        <mxCell id="LJq8jPC8GaU89uwI5xMu-51" value="(1:1)" style="text;html=1;strokeColor=none;fillColor=none;align=center;verticalAlign=middle;whiteSpace=wrap;rounded=0;" vertex="1" parent="1">
          <mxGeometry x="680" y="1210" width="60" height="30" as="geometry" />
        </mxCell>
        <mxCell id="LJq8jPC8GaU89uwI5xMu-52" value="&lt;b&gt;1:N&lt;/b&gt;" style="text;html=1;strokeColor=none;fillColor=none;align=center;verticalAlign=middle;whiteSpace=wrap;rounded=0;" vertex="1" parent="1">
          <mxGeometry x="450" y="1255" width="60" height="30" as="geometry" />
        </mxCell>
        <mxCell id="LJq8jPC8GaU89uwI5xMu-53" value="(1:N)" style="text;html=1;strokeColor=none;fillColor=none;align=center;verticalAlign=middle;whiteSpace=wrap;rounded=0;" vertex="1" parent="1">
          <mxGeometry x="590" y="1460" width="60" height="30" as="geometry" />
        </mxCell>
        <mxCell id="LJq8jPC8GaU89uwI5xMu-54" value="(0:N)" style="text;html=1;strokeColor=none;fillColor=none;align=center;verticalAlign=middle;whiteSpace=wrap;rounded=0;" vertex="1" parent="1">
          <mxGeometry x="620" y="1660" width="60" height="30" as="geometry" />
        </mxCell>
        <mxCell id="LJq8jPC8GaU89uwI5xMu-56" value="&lt;b&gt;N:M&lt;/b&gt;" style="text;html=1;strokeColor=none;fillColor=none;align=center;verticalAlign=middle;whiteSpace=wrap;rounded=0;" vertex="1" parent="1">
          <mxGeometry x="740" y="1585" width="60" height="30" as="geometry" />
        </mxCell>
        <mxCell id="LJq8jPC8GaU89uwI5xMu-70" value="&lt;u&gt;id&lt;/u&gt;" style="ellipse;whiteSpace=wrap;html=1;fillColor=#ffe6cc;strokeColor=#d79b00;" vertex="1" parent="1">
          <mxGeometry x="10" y="1530" width="80" height="40" as="geometry" />
        </mxCell>
        <mxCell id="LJq8jPC8GaU89uwI5xMu-73" value="nombre" style="ellipse;whiteSpace=wrap;html=1;" vertex="1" parent="1">
          <mxGeometry x="130" y="1530" width="80" height="40" as="geometry" />
        </mxCell>
        <mxCell id="LJq8jPC8GaU89uwI5xMu-74" value="&lt;u&gt;id&lt;/u&gt;" style="ellipse;whiteSpace=wrap;html=1;fillColor=#ffe6cc;strokeColor=#d79b00;" vertex="1" parent="1">
          <mxGeometry x="580" y="1320" width="80" height="40" as="geometry" />
        </mxCell>
        <mxCell id="LJq8jPC8GaU89uwI5xMu-76" value="nombre" style="ellipse;whiteSpace=wrap;html=1;" vertex="1" parent="1">
          <mxGeometry x="710" y="1350" width="80" height="40" as="geometry" />
        </mxCell>
        <mxCell id="LJq8jPC8GaU89uwI5xMu-78" value="&lt;u&gt;id&lt;/u&gt;" style="ellipse;whiteSpace=wrap;html=1;fillColor=#ffe6cc;strokeColor=#d79b00;" vertex="1" parent="1">
          <mxGeometry x="414" y="1530" width="80" height="40" as="geometry" />
        </mxCell>
        <mxCell id="LJq8jPC8GaU89uwI5xMu-80" value="precio" style="ellipse;whiteSpace=wrap;html=1;" vertex="1" parent="1">
          <mxGeometry x="520" y="1550" width="80" height="40" as="geometry" />
        </mxCell>
        <mxCell id="LJq8jPC8GaU89uwI5xMu-81" style="edgeStyle=orthogonalEdgeStyle;rounded=0;orthogonalLoop=1;jettySize=auto;html=1;exitX=0.5;exitY=1;exitDx=0;exitDy=0;entryX=0.338;entryY=0.05;entryDx=0;entryDy=0;entryPerimeter=0;" edge="1" parent="1" source="LJq8jPC8GaU89uwI5xMu-31" target="LJq8jPC8GaU89uwI5xMu-80">
          <mxGeometry relative="1" as="geometry" />
        </mxCell>
        <mxCell id="LJq8jPC8GaU89uwI5xMu-83" style="edgeStyle=orthogonalEdgeStyle;rounded=0;orthogonalLoop=1;jettySize=auto;html=1;exitX=0.5;exitY=1;exitDx=0;exitDy=0;entryX=0.25;entryY=0;entryDx=0;entryDy=0;" edge="1" parent="1" source="LJq8jPC8GaU89uwI5xMu-82" target="LJq8jPC8GaU89uwI5xMu-31">
          <mxGeometry relative="1" as="geometry" />
        </mxCell>
        <mxCell id="LJq8jPC8GaU89uwI5xMu-82" value="nombre" style="ellipse;whiteSpace=wrap;html=1;" vertex="1" parent="1">
          <mxGeometry x="450" y="1370" width="80" height="40" as="geometry" />
        </mxCell>
        <mxCell id="LJq8jPC8GaU89uwI5xMu-85" value="&lt;div&gt;producto&lt;/div&gt;" style="ellipse;whiteSpace=wrap;html=1;" vertex="1" parent="1">
          <mxGeometry x="460" y="1590" width="80" height="50" as="geometry" />
        </mxCell>
        <mxCell id="LJq8jPC8GaU89uwI5xMu-89" style="edgeStyle=orthogonalEdgeStyle;rounded=0;orthogonalLoop=1;jettySize=auto;html=1;exitX=0;exitY=1;exitDx=0;exitDy=0;entryX=0.5;entryY=1;entryDx=0;entryDy=0;" edge="1" source="LJq8jPC8GaU89uwI5xMu-90" target="LJq8jPC8GaU89uwI5xMu-93" parent="1">
          <mxGeometry relative="1" as="geometry" />
        </mxCell>
        <mxCell id="LJq8jPC8GaU89uwI5xMu-99" style="edgeStyle=orthogonalEdgeStyle;rounded=0;orthogonalLoop=1;jettySize=auto;html=1;exitX=0.5;exitY=1;exitDx=0;exitDy=0;entryX=0;entryY=0.5;entryDx=0;entryDy=0;" edge="1" parent="1" source="LJq8jPC8GaU89uwI5xMu-90" target="LJq8jPC8GaU89uwI5xMu-98">
          <mxGeometry relative="1" as="geometry" />
        </mxCell>
        <mxCell id="LJq8jPC8GaU89uwI5xMu-100" style="edgeStyle=orthogonalEdgeStyle;rounded=0;orthogonalLoop=1;jettySize=auto;html=1;exitX=1;exitY=0.5;exitDx=0;exitDy=0;entryX=0;entryY=0.5;entryDx=0;entryDy=0;" edge="1" parent="1" source="LJq8jPC8GaU89uwI5xMu-90" target="LJq8jPC8GaU89uwI5xMu-92">
          <mxGeometry relative="1" as="geometry" />
        </mxCell>
        <mxCell id="LJq8jPC8GaU89uwI5xMu-90" value="direccion" style="ellipse;whiteSpace=wrap;html=1;" vertex="1" parent="1">
          <mxGeometry x="120" y="1830" width="80" height="40" as="geometry" />
        </mxCell>
        <mxCell id="LJq8jPC8GaU89uwI5xMu-92" value="calle" style="ellipse;whiteSpace=wrap;html=1;" vertex="1" parent="1">
          <mxGeometry x="250" y="1880" width="80" height="40" as="geometry" />
        </mxCell>
        <mxCell id="LJq8jPC8GaU89uwI5xMu-93" value="provincia" style="ellipse;whiteSpace=wrap;html=1;" vertex="1" parent="1">
          <mxGeometry x="30" y="1870" width="80" height="40" as="geometry" />
        </mxCell>
        <mxCell id="LJq8jPC8GaU89uwI5xMu-98" value="numero" style="ellipse;whiteSpace=wrap;html=1;" vertex="1" parent="1">
          <mxGeometry x="160" y="1930" width="80" height="40" as="geometry" />
        </mxCell>
        <mxCell id="LJq8jPC8GaU89uwI5xMu-101" value="&lt;u&gt;id&lt;/u&gt;" style="ellipse;whiteSpace=wrap;html=1;fillColor=#ffe6cc;strokeColor=#d79b00;" vertex="1" parent="1">
          <mxGeometry x="10" y="1630" width="80" height="40" as="geometry" />
        </mxCell>
        <mxCell id="LJq8jPC8GaU89uwI5xMu-102" style="edgeStyle=orthogonalEdgeStyle;rounded=0;orthogonalLoop=1;jettySize=auto;html=1;exitX=0.25;exitY=0;exitDx=0;exitDy=0;entryX=1.038;entryY=0.7;entryDx=0;entryDy=0;entryPerimeter=0;" edge="1" parent="1" source="LJq8jPC8GaU89uwI5xMu-42" target="LJq8jPC8GaU89uwI5xMu-101">
          <mxGeometry relative="1" as="geometry" />
        </mxCell>
        <mxCell id="LJq8jPC8GaU89uwI5xMu-103" value="direccion" style="ellipse;whiteSpace=wrap;html=1;" vertex="1" parent="1">
          <mxGeometry x="140" y="1350" width="80" height="40" as="geometry" />
        </mxCell>
        <mxCell id="LJq8jPC8GaU89uwI5xMu-105" value="telefono" style="ellipse;whiteSpace=wrap;html=1;" vertex="1" parent="1">
          <mxGeometry x="40" y="1350" width="80" height="40" as="geometry" />
        </mxCell>
        <mxCell id="LJq8jPC8GaU89uwI5xMu-106" style="edgeStyle=orthogonalEdgeStyle;rounded=0;orthogonalLoop=1;jettySize=auto;html=1;exitX=0.5;exitY=1;exitDx=0;exitDy=0;entryX=0.183;entryY=0.033;entryDx=0;entryDy=0;entryPerimeter=0;" edge="1" parent="1" source="LJq8jPC8GaU89uwI5xMu-105" target="LJq8jPC8GaU89uwI5xMu-28">
          <mxGeometry relative="1" as="geometry" />
        </mxCell>
        <mxCell id="LJq8jPC8GaU89uwI5xMu-108" style="edgeStyle=orthogonalEdgeStyle;rounded=0;orthogonalLoop=1;jettySize=auto;html=1;exitX=0;exitY=0.5;exitDx=0;exitDy=0;entryX=1;entryY=0.25;entryDx=0;entryDy=0;" edge="1" parent="1" source="LJq8jPC8GaU89uwI5xMu-107" target="LJq8jPC8GaU89uwI5xMu-42">
          <mxGeometry relative="1" as="geometry" />
        </mxCell>
        <mxCell id="LJq8jPC8GaU89uwI5xMu-107" value="telefono" style="ellipse;whiteSpace=wrap;html=1;" vertex="1" parent="1">
          <mxGeometry x="200" y="1630" width="80" height="30" as="geometry" />
        </mxCell>
        <mxCell id="LJq8jPC8GaU89uwI5xMu-109" value="&lt;u&gt;id&lt;/u&gt;" style="ellipse;whiteSpace=wrap;html=1;fillColor=#ffe6cc;strokeColor=#d79b00;" vertex="1" parent="1">
          <mxGeometry x="450" y="1740" width="80" height="40" as="geometry" />
        </mxCell>
        <mxCell id="LJq8jPC8GaU89uwI5xMu-111" value="fecha" style="ellipse;whiteSpace=wrap;html=1;" vertex="1" parent="1">
          <mxGeometry x="480" y="1830" width="80" height="40" as="geometry" />
        </mxCell>
        <mxCell id="LJq8jPC8GaU89uwI5xMu-112" value="cliente" style="ellipse;whiteSpace=wrap;html=1;" vertex="1" parent="1">
          <mxGeometry x="590" y="1840" width="80" height="40" as="geometry" />
        </mxCell>
      </root>
    </mxGraphModel>
  </diagram>
</mxfile>
